#Comment line ignore any data following # character 
#Hierarchical Translation and Rotation (.htr) file 
[Header]	
#Header keywords are followed by a single value 
FileType HTR		#Single word string
DataType HTRS		#Translation followed by rotation and scale data
FileVersion 1		#integer
NumSegments 64		#integer
NumFrames 3		#integer
DataFrameRate 30		#integer, data frame rate in this file
EulerRotationOrder ZYX
CalibrationUnits mm
RotationUnits Degrees
GlobalAxisofGravity Y
BoneLengthAxis Y
ScaleFactor 1.00
[SegmentNames&Hierarchy]
#CHILD	PARENT
Pinger_Root GLOBAL
Pelvis Pinger_Root
L_Hip Pelvis
R_Hip Pelvis
Rear_Leg01 Pelvis
Spine1 Pelvis
L_Leg01 L_Hip
L_Leg02 L_Leg01
L_Leg03 L_Leg02
L_Foot L_Leg03
L_Toe1_01 L_Foot
L_Toe2_01 L_Foot
L_Toe3_01 L_Foot
planeAlignerLeft L_Foot
L_Toe1_02 L_Toe1_01
L_Toe1_03 L_Toe1_02
L_Toe2_02 L_Toe2_01
L_Toe2_03 L_Toe2_02
L_Toe3_02 L_Toe3_01
L_Toe3_03 L_Toe3_02
planeLockWeightLeft planeAlignerLeft
R_Leg01 R_Hip
R_Leg02 R_Leg01
R_Leg03 R_Leg02
R_Foot R_Leg03
planeAlignerRight R_Foot
R_Toe1_01 R_Foot
R_Toe2_01 R_Foot
R_Toe3_01 R_Foot
planeLockWeightRight planeAlignerRight
R_Toe1_02 R_Toe1_01
R_Toe1_03 R_Toe1_02
R_Toe2_02 R_Toe2_01
R_Toe2_03 R_Toe2_02
R_Toe3_02 R_Toe3_01
R_Toe3_03 R_Toe3_02
Rear_Leg02 Rear_Leg01
Rear_Leg03 Rear_Leg02
Rear_Leg04 Rear_Leg03
Rear_Foot Rear_Leg04
planeAlignerCenter Rear_Foot
Rear_Toe1_01 Rear_Foot
Rear_Toe2_01 Rear_Foot
Rear_Toe3_01 Rear_Foot
planeLockWeightCenter planeAlignerCenter
Rear_Toe1_02 Rear_Toe1_01
Rear_Toe1_03 Rear_Toe1_02
Rear_Toe2_02 Rear_Toe2_01
Rear_Toe2_03 Rear_Toe2_02
Rear_Toe3_02 Rear_Toe3_01
Rear_Toe3_03 Rear_Toe3_02
Back_Bone Spine1
Head Spine1
Motor_Bone Back_Bone
Ping_Mechanism Back_Bone
BN_LookIK Head
bottomMouth Head
L_Mouth01 Head
L_mouthFront Head
mouthGun Head
R_Mouth01 Head
R_mouthFront Head
TopMouth Head
weapon_bone Head
[BasePosition]
#SegmentName Tx, Ty, Tz, Rx, Ry, Rz, BoneLength
Pinger_Root 0.000000 0.000000 0.000000 -90.000000 0.000000 0.000000 10.000000 
Pelvis 0.000000 0.000000 0.000000 0.000000 0.000000 0.000000 10.000000 
L_Hip 0.000000 0.000000 0.000000 0.000000 0.000000 0.000000 10.000000 
R_Hip 0.000000 0.000000 0.000000 0.000000 0.000000 0.000000 10.000000 
Rear_Leg01 0.000000 0.000000 0.000000 0.000000 0.000000 0.000000 10.000000 
Spine1 0.000000 0.000000 0.000000 0.000000 0.000000 0.000000 10.000000 
L_Leg01 0.000000 0.000000 0.000000 0.000000 0.000000 0.000000 10.000000 
L_Leg02 0.000000 0.000000 0.000000 0.000000 0.000000 0.000000 10.000000 
L_Leg03 0.000000 0.000000 0.000000 0.000000 0.000000 0.000000 10.000000 
L_Foot 0.000000 0.000000 0.000000 0.000000 0.000000 0.000000 10.000000 
L_Toe1_01 0.000000 0.000000 0.000000 0.000000 0.000000 0.000000 10.000000 
L_Toe2_01 0.000000 0.000000 0.000000 0.000000 0.000000 0.000000 10.000000 
L_Toe3_01 0.000000 0.000000 0.000000 0.000000 0.000000 0.000000 10.000000 
planeAlignerLeft 0.000000 0.000000 0.000000 0.000000 0.000000 0.000000 10.000000 
L_Toe1_02 0.000000 0.000000 0.000000 0.000000 0.000000 0.000000 10.000000 
L_Toe1_03 0.000000 0.000000 0.000000 0.000000 0.000000 0.000000 10.000000 
L_Toe2_02 0.000000 0.000000 0.000000 0.000000 0.000000 0.000000 10.000000 
L_Toe2_03 0.000000 0.000000 0.000000 0.000000 0.000000 0.000000 10.000000 
L_Toe3_02 0.000000 0.000000 0.000000 0.000000 0.000000 0.000000 10.000000 
L_Toe3_03 0.000000 0.000000 0.000000 0.000000 0.000000 0.000000 10.000000 
planeLockWeightLeft 0.000000 0.000000 0.000000 0.000000 0.000000 0.000000 10.000000 
R_Leg01 0.000000 0.000000 0.000000 0.000000 0.000000 0.000000 10.000000 
R_Leg02 0.000000 0.000000 0.000000 0.000000 0.000000 0.000000 10.000000 
R_Leg03 0.000000 0.000000 0.000000 0.000000 0.000000 0.000000 10.000000 
R_Foot 0.000000 0.000000 0.000000 0.000000 0.000000 0.000000 10.000000 
planeAlignerRight 0.000000 0.000000 0.000000 0.000000 0.000000 0.000000 10.000000 
R_Toe1_01 0.000000 0.000000 0.000000 0.000000 0.000000 0.000000 10.000000 
R_Toe2_01 0.000000 0.000000 0.000000 0.000000 0.000000 0.000000 10.000000 
R_Toe3_01 0.000000 0.000000 0.000000 0.000000 0.000000 0.000000 10.000000 
planeLockWeightRight 0.000000 0.000000 0.000000 0.000000 0.000000 0.000000 10.000000 
R_Toe1_02 0.000000 0.000000 0.000000 0.000000 0.000000 0.000000 10.000000 
R_Toe1_03 0.000000 0.000000 0.000000 0.000000 0.000000 0.000000 10.000000 
R_Toe2_02 0.000000 0.000000 0.000000 0.000000 0.000000 0.000000 10.000000 
R_Toe2_03 0.000000 0.000000 0.000000 0.000000 0.000000 0.000000 10.000000 
R_Toe3_02 0.000000 0.000000 0.000000 0.000000 0.000000 0.000000 10.000000 
R_Toe3_03 0.000000 0.000000 0.000000 0.000000 0.000000 0.000000 10.000000 
Rear_Leg02 0.000000 0.000000 0.000000 0.000000 0.000000 0.000000 10.000000 
Rear_Leg03 0.000000 0.000000 0.000000 0.000000 0.000000 0.000000 10.000000 
Rear_Leg04 0.000000 0.000000 0.000000 0.000000 0.000000 0.000000 10.000000 
Rear_Foot 0.000000 0.000000 0.000000 0.000000 0.000000 0.000000 10.000000 
planeAlignerCenter 0.000000 0.000000 0.000000 0.000000 0.000000 0.000000 10.000000 
Rear_Toe1_01 0.000000 0.000000 0.000000 0.000000 0.000000 0.000000 10.000000 
Rear_Toe2_01 0.000000 0.000000 0.000000 0.000000 0.000000 0.000000 10.000000 
Rear_Toe3_01 0.000000 0.000000 0.000000 0.000000 0.000000 0.000000 10.000000 
planeLockWeightCenter 0.000000 0.000000 0.000000 0.000000 0.000000 0.000000 10.000000 
Rear_Toe1_02 0.000000 0.000000 0.000000 0.000000 0.000000 0.000000 10.000000 
Rear_Toe1_03 0.000000 0.000000 0.000000 0.000000 0.000000 0.000000 10.000000 
Rear_Toe2_02 0.000000 0.000000 0.000000 0.000000 0.000000 0.000000 10.000000 
Rear_Toe2_03 0.000000 0.000000 0.000000 0.000000 0.000000 0.000000 10.000000 
Rear_Toe3_02 0.000000 0.000000 0.000000 0.000000 0.000000 0.000000 10.000000 
Rear_Toe3_03 0.000000 0.000000 0.000000 0.000000 0.000000 0.000000 10.000000 
Back_Bone 0.000000 0.000000 0.000000 0.000000 0.000000 0.000000 10.000000 
Head 0.000000 0.000000 0.000000 0.000000 0.000000 0.000000 10.000000 
Motor_Bone 0.000000 0.000000 0.000000 0.000000 0.000000 0.000000 10.000000 
Ping_Mechanism 0.000000 0.000000 0.000000 0.000000 0.000000 0.000000 10.000000 
BN_LookIK 0.000000 0.000000 0.000000 0.000000 0.000000 0.000000 10.000000 
bottomMouth 0.000000 0.000000 0.000000 0.000000 0.000000 0.000000 10.000000 
L_Mouth01 0.000000 0.000000 0.000000 0.000000 0.000000 0.000000 10.000000 
L_mouthFront 0.000000 0.000000 0.000000 0.000000 0.000000 0.000000 10.000000 
mouthGun 0.000000 0.000000 0.000000 0.000000 0.000000 0.000000 10.000000 
R_Mouth01 0.000000 0.000000 0.000000 0.000000 0.000000 0.000000 10.000000 
R_mouthFront 0.000000 0.000000 0.000000 0.000000 0.000000 0.000000 10.000000 
TopMouth 0.000000 0.000000 0.000000 0.000000 0.000000 0.000000 10.000000 
weapon_bone 0.000000 0.000000 0.000000 0.000000 0.000000 0.000000 10.000000 
#Beginning of Data. Separated by tabs
#Fr	Tx	Ty	Tz	Rx	Ry	Rz	SF
[Pinger_Root]
11 0.000000 -1296.296631 0.000000 -0.000075 -0.000000 -0.000020 1296.296631
12 0.000000 -1425.926270 0.000000 -0.000075 -0.000000 -0.000020 1425.926270
13 0.000000 -1555.555786 0.000000 -0.000075 -0.000000 -0.000020 1555.555908
[Pelvis]
11 -325.226898 391.539520 5212.523926 -91.165001 -69.180298 95.662560 5237.316406
12 -319.169708 397.928833 5198.828125 -93.755730 -71.000473 97.051353 5223.794434
13 -307.920715 392.205811 5162.660645 -96.712677 -71.761658 98.591118 5186.685059
[L_Hip]
11 5.766392 125.831482 872.656799 -178.250168 -81.786369 87.376007 881.701050
12 5.766392 125.831482 872.656799 -178.250168 -81.786369 87.376007 881.701050
13 5.766392 125.831482 872.656799 -178.250168 -81.786369 87.376007 881.701050
[R_Hip]
11 5.765438 125.836372 -872.654907 -1.748770 81.786041 87.376961 881.699829
12 5.765438 125.836372 -872.654907 -1.748770 81.786041 87.376961 881.699829
13 5.765438 125.836372 -872.654907 -1.748770 81.786041 87.376961 881.699829
[Rear_Leg01]
11 -192.298416 -925.602966 -0.001907 -178.180450 -0.179347 -169.568237 945.367432
12 -192.298416 -925.602966 -0.001907 -179.457642 0.002229 179.879639 945.367432
13 -192.298416 -925.602966 -0.001907 179.155731 -0.335082 171.337326 945.367432
[Spine1]
11 290.604584 5.007505 0.000477 -0.570207 2.168047 0.893836 290.647736
12 290.604584 5.007505 0.000477 0.684115 2.522539 2.901116 290.647736
13 290.604584 5.007505 0.000477 2.086222 2.861371 3.592187 290.647736
[L_Leg01]
11 761.932007 -0.002384 -0.069261 66.927849 -52.817963 -66.427261 761.932068
12 761.932007 -0.002384 -0.069261 65.780647 -51.146835 -65.166298 761.932068
13 761.932007 -0.002384 -0.069261 62.961143 -51.116501 -62.101959 761.932068
[L_Leg02]
11 1441.140503 -0.000954 -0.000715 -1.379835 0.605424 -106.311592 1441.140503
12 1441.140503 -0.000954 -0.000715 -1.370312 0.575472 -106.583092 1441.140503
13 1441.140503 -0.000954 -0.000715 -1.303324 0.523857 -108.361969 1441.140503
[L_Leg03]
11 1686.963989 -0.000715 -0.000954 0.047043 -0.013520 97.307159 1686.963989
12 1686.963989 -0.000715 -0.000954 0.043673 -0.010256 98.481102 1686.963989
13 1686.963989 -0.000715 -0.000954 0.038461 -0.008639 100.017525 1686.963989
[L_Foot]
11 3041.570068 -30.715107 11.297464 -8.256921 16.751705 60.139835 3041.746094
12 3041.570068 -30.715107 11.297464 -8.090983 16.729401 58.649395 3041.746094
13 3041.570068 -30.715107 11.297464 -8.160176 16.455425 57.142002 3041.746094
[L_Toe1_01]
11 -188.216690 -224.732346 -21.137953 89.321892 -1.870081 -162.483978 293.899567
12 -188.216690 -224.732346 -21.137953 89.295097 -1.857784 -161.674072 293.899567
13 -188.216690 -224.732346 -21.137953 89.268463 -1.845111 -160.864197 293.899567
[L_Toe2_01]
11 200.746536 -219.926590 148.838394 -77.646446 -13.444320 -44.894249 332.896027
12 200.746536 -219.926590 148.838394 -77.484428 -13.353902 -45.596081 332.896027
13 200.746536 -219.926590 148.838394 -77.323631 -13.261557 -46.297390 332.896027
[L_Toe3_01]
11 188.832520 -219.859131 -191.078659 -106.112877 16.721796 -46.814423 347.140900
12 188.832520 -219.859131 -191.078659 -106.316605 16.598152 -47.525059 347.140900
13 188.832520 -219.859131 -191.078659 -106.518547 16.472092 -48.234753 347.140900
[planeAlignerLeft]
11 -49.718937 -624.822266 0.075226 0.000000 -90.000000 -90.001900 626.797302
12 -52.788933 -633.396118 0.074234 0.000000 -90.000000 -90.001900 635.592041
13 -55.858925 -641.969910 0.073242 0.000000 -90.000000 -90.001900 644.395508
[L_Toe1_02]
11 413.761139 0.000477 0.000000 0.001400 -23.953726 0.001400 413.761139
12 413.761139 0.000477 0.000000 0.001398 -24.174086 0.001398 413.761139
13 413.761139 0.000477 0.000000 0.001396 -24.394444 0.001396 413.761139
[L_Toe1_03]
11 464.317322 0.000358 -0.000089 0.008443 74.016258 0.008443 464.317322
12 464.317322 0.000358 -0.000089 0.007904 72.921776 0.007904 464.317322
13 464.317322 0.000358 -0.000089 0.007278 71.438454 0.007278 464.317322
[L_Toe2_02]
11 342.235809 -0.000477 0.000238 0.001179 -78.754898 0.001179 342.235809
12 342.235809 -0.000477 0.000238 0.001179 -78.594139 0.001179 342.235809
13 342.235809 -0.000477 0.000238 0.001180 -78.433380 0.001180 342.235809
[L_Toe2_03]
11 420.210846 -0.000715 0.000000 -179.998032 72.350952 -179.994492 420.210846
12 420.210846 -0.000715 0.000000 -179.997940 72.737938 -179.994400 420.210846
13 420.210846 -0.000715 0.000000 -179.997849 73.124870 -179.994324 420.210846
[L_Toe3_02]
11 329.270111 0.000954 0.000000 0.001176 -82.140976 0.001176 329.270111
12 329.270111 0.000954 0.000000 0.001176 -82.195259 0.001176 329.270111
13 329.270111 0.000954 0.000000 0.001176 -81.989990 0.001176 329.270111
[L_Toe3_03]
11 439.137451 -0.001907 0.000954 -179.998306 70.887352 -179.994766 439.137451
12 439.137451 -0.001907 0.000954 -179.998306 70.984467 -179.994751 439.137451
13 439.137451 -0.001907 0.000954 -179.998184 71.624863 -179.994629 439.137451
[planeLockWeightLeft]
11 999.999084 0.098096 0.076181 -0.011826 -0.004376 0.005620 999.999084
12 999.999084 0.098102 0.076173 -0.011826 -0.004376 0.005620 999.999084
13 999.999084 0.098108 0.076164 -0.011826 -0.004376 0.005620 999.999084
[R_Leg01]
11 761.455627 -0.001907 -0.000358 135.426712 -64.532227 35.489326 761.455688
12 761.455627 -0.001907 -0.000358 151.679504 -72.058678 18.540543 761.455688
13 761.455627 -0.001907 -0.000358 -177.891418 -75.985527 -11.982907 761.455688
[R_Leg02]
11 1441.140625 0.000000 -0.000238 0.178433 -0.037003 -99.273163 1441.140625
12 1441.140625 0.000000 -0.000238 0.158469 -0.077199 -113.016129 1441.140625
13 1441.140625 0.000000 -0.000238 0.127424 -0.110728 -122.843018 1441.140625
[R_Leg03]
11 1686.963989 0.000954 0.001431 -0.067362 0.015075 91.847908 1686.963989
12 1686.963989 0.000954 0.001431 -0.074624 0.013803 89.718269 1686.963989
13 1686.963989 0.000954 0.001431 -0.085539 0.015073 86.762695 1686.963989
[R_Foot]
11 3041.560059 -30.531288 -11.204481 11.552053 -26.246407 48.151138 3041.734131
12 3041.560059 -30.531288 -11.204481 7.851587 -27.503265 60.186077 3041.734131
13 3041.560059 -30.531288 -11.204481 4.920543 -27.923805 68.784340 3041.734131
[planeAlignerRight]
11 -52.858288 -841.013184 17.945555 0.000000 -89.960434 -90.005180 842.863708
12 -61.205006 -840.427490 17.082212 0.000000 -89.960434 -90.005180 842.826355
13 -73.275940 -839.063232 16.137999 0.000000 -89.960434 -90.005180 842.411316
[R_Toe1_01]
11 -188.383347 -224.864899 21.052242 91.184486 0.726791 -143.684143 294.101532
12 -188.383347 -224.864899 21.052242 91.184128 0.717194 -143.178177 294.101532
13 -188.383347 -224.864899 21.052242 91.183685 0.707600 -142.672211 294.101532
[R_Toe2_01]
11 200.637817 -220.002121 -148.787384 -105.171074 8.883948 -61.005032 332.857574
12 200.637817 -220.002121 -148.787384 -105.260887 9.148936 -61.086712 332.857574
13 200.637817 -220.002121 -148.787384 -105.351158 9.413786 -61.168900 332.857574
[R_Toe3_01]
11 188.606735 -220.092957 191.126343 -69.584892 -12.828805 -63.472824 347.192566
12 188.606735 -220.092957 191.126343 -69.477356 -13.139318 -63.579670 347.192566
13 188.606735 -220.092957 191.126343 -69.369072 -13.449626 -63.687241 347.192566
[planeLockWeightRight]
11 647.998840 -0.000305 0.076065 -0.011823 -0.004379 -0.000027 647.998840
12 351.999207 -0.000458 0.076332 -0.011823 -0.004379 -0.000027 351.999207
13 103.999588 -0.000458 0.076332 -0.011823 -0.004379 -0.000027 103.999611
[R_Toe1_02]
11 413.762085 0.000477 -0.000119 0.001388 -25.465031 0.001388 413.762085
12 413.762085 0.000477 -0.000119 0.001394 -24.735418 0.001394 413.762085
13 413.762085 0.000477 -0.000119 0.001404 -23.380219 0.001404 413.762085
[R_Toe1_03]
11 464.317810 0.000000 0.001088 0.002995 43.865070 0.002995 464.317810
12 464.317810 0.000000 0.001088 0.000594 39.246830 -0.003276 464.317810
13 464.317810 0.000000 0.001088 0.000767 33.612770 -0.003200 464.317810
[R_Toe2_02]
11 342.234741 -0.000954 0.000238 -0.000581 -73.016090 -0.000581 342.234741
12 342.234741 -0.000954 0.000238 -0.001464 -73.860672 -0.001464 342.234741
13 342.234741 -0.000954 0.000238 -0.002344 -74.705185 -0.002344 342.234741
[R_Toe2_03]
11 420.210846 0.000715 -0.000268 0.012373 87.014961 0.010624 420.210846
12 420.210846 0.000715 -0.000268 -0.112908 89.424606 -0.116405 420.210846
13 420.210846 0.000715 -0.000268 -179.968201 87.808037 -179.971710 420.210846
[R_Toe3_02]
11 329.270355 -0.000477 -0.000954 0.001182 -76.491165 0.001182 329.270355
12 329.270355 -0.000477 -0.000954 0.001181 -77.275253 0.001181 329.270355
13 329.270355 -0.000477 -0.000954 0.001180 -78.059212 0.001180 329.270355
[R_Toe3_03]
11 439.137939 0.000238 0.001431 -0.035504 88.048553 -0.032007 439.137939
12 439.137939 0.000238 0.001431 0.000000 89.478485 0.003503 439.137939
13 439.137939 0.000238 0.001431 -179.979736 87.007744 -179.976242 439.137939
[Rear_Leg02]
11 1162.777710 -0.029802 0.005960 -8.130015 -15.305952 -62.198471 1162.777710
12 1162.777710 -0.029802 0.005960 -6.524524 -14.635576 -79.992584 1162.777710
13 1162.777710 -0.029802 0.005960 -4.595600 -12.084546 -94.002045 1162.777710
[Rear_Leg03]
11 607.192505 -0.013351 -0.073195 0.008707 0.003381 47.557781 607.192505
12 607.192505 -0.013351 -0.073195 0.008760 0.003241 49.391037 607.192505
13 607.192505 -0.013351 -0.073195 0.008799 0.003134 50.794010 607.192505
[Rear_Leg04]
11 995.874512 -0.020504 -0.011921 -0.033011 -0.015076 29.833628 995.874573
12 995.874512 -0.020504 -0.011921 -0.033366 -0.014273 32.606636 995.874573
13 995.874512 -0.020504 -0.011921 -0.033625 -0.013651 34.735550 995.874573
[Rear_Foot]
11 3096.176270 -0.067472 -0.041425 -118.667557 73.296463 78.778259 3096.176270
12 3096.176270 -0.067472 -0.041425 -119.025406 74.723724 78.975327 3096.176270
13 3096.176270 -0.067472 -0.041425 -118.323853 77.927895 80.438866 3096.176270
[planeAlignerCenter]
11 1.038074 89.341812 -693.823975 0.000009 0.000003 -179.999985 699.553223
12 1.037331 129.352692 -650.056091 0.000009 0.000003 -179.999985 662.801697
13 1.038494 114.271469 -651.513367 0.000009 0.000003 -179.999985 661.459473
[Rear_Toe1_01]
11 0.653352 83.966492 -371.173737 0.057282 21.635641 90.026405 380.553192
12 0.653352 83.966492 -371.173737 0.061212 20.344570 90.030823 380.553192
13 0.653352 83.966492 -371.173737 0.060691 19.790548 90.028999 380.553192
[Rear_Toe2_01]
11 178.200760 -294.826019 -362.060547 1.113346 45.920399 -69.490540 499.765686
12 178.200760 -294.826019 -362.060547 1.552871 42.204971 -68.375504 499.765686
13 178.200760 -294.826019 -362.060547 1.332500 42.485661 -68.826447 499.765686
[Rear_Toe3_01]
11 -153.359680 -308.780914 -362.060852 -1.373849 45.935478 -113.022324 499.952881
12 -153.359680 -308.780914 -362.060852 -1.857188 42.242470 -114.265114 499.952881
13 -153.359680 -308.780914 -362.060852 -1.608197 42.512791 -113.750908 499.952881
[planeLockWeightCenter]
11 1000.000244 -0.000256 0.076237 -0.011814 -0.004373 -0.000015 1000.000244
12 1000.000244 -0.000239 0.076238 -0.011814 -0.004373 -0.000015 1000.000244
13 1000.000244 -0.000223 0.076238 -0.011814 -0.004373 -0.000015 1000.000244
[Rear_Toe1_02]
11 379.707825 0.194073 0.000477 -0.000767 -33.624729 0.000838 379.707855
12 379.707825 0.194073 0.000477 -0.000767 -33.624729 0.000838 379.707855
13 379.707825 0.194073 0.000477 -0.000767 -33.624729 0.000838 379.707855
[Rear_Toe1_03]
11 500.129700 0.165701 0.000119 0.007018 70.747726 0.007018 500.129761
12 500.129700 0.165701 0.000119 -0.004504 65.558540 -0.000926 500.129761
13 500.129700 0.165701 0.000119 -0.004891 68.716400 -0.001333 500.129761
[Rear_Toe2_02]
11 340.494507 0.000238 -0.000954 0.001174 -86.336815 0.001174 340.494507
12 340.494507 0.000238 -0.000954 0.001174 -89.337074 0.001174 340.494507
13 340.494507 0.000238 -0.000954 -0.002323 -88.650558 -0.002323 340.494507
[Rear_Toe2_03]
11 433.103577 0.000000 0.000238 -179.992889 77.669312 -179.996414 433.103546
12 433.103577 0.000000 0.000238 -179.995102 68.728386 -179.998672 433.103546
13 433.103577 0.000000 0.000238 -179.994766 70.935913 -179.998306 433.103546
[Rear_Toe3_02]
11 340.494141 -0.000358 -0.000477 0.001174 -86.235168 0.001174 340.494171
12 340.494141 -0.000358 -0.000477 0.001174 -89.239471 0.001174 340.494171
13 340.494141 -0.000358 -0.000477 0.001174 -88.546936 0.001174 340.494171
[Rear_Toe3_03]
11 433.103577 0.001431 -0.000238 -179.996292 77.948944 -179.992767 433.103546
12 433.103577 0.001431 -0.000238 -179.998611 69.100243 -179.995056 433.103546
13 433.103577 0.001431 -0.000238 -179.998245 71.270218 -179.994690 433.103546
[Back_Bone]
11 1312.175781 -701.934692 0.000954 -2.745125 -3.506787 -82.036652 1488.125488
12 1312.175781 -701.934692 0.000954 -2.553530 -3.578833 -81.561256 1488.125488
13 1312.175781 -701.934692 0.000954 -2.362533 -3.652460 -81.086090 1488.125488
[Head]
11 1406.159424 809.709290 0.001431 -4.890806 -0.216292 19.640282 1622.625488
12 1406.159424 809.709290 0.001431 -4.740165 -0.538245 20.024252 1622.625488
13 1406.159424 809.709290 0.001431 -4.489122 -0.850339 21.277655 1622.625488
[Motor_Bone]
11 1158.364380 -417.834747 0.000477 -1.845117 -0.485017 -106.470413 1231.419434
12 1158.364380 -417.834747 0.000477 -1.729657 -0.306488 -106.290817 1231.419434
13 1158.364380 -417.834747 0.000477 -1.440879 0.000172 -105.983208 1231.419434
[Ping_Mechanism]
11 1314.500854 -465.378540 -12.191011 0.000103 -0.000053 82.120995 1394.502808
12 1304.794556 -465.038147 -13.408512 0.000103 -0.000053 82.120995 1385.254150
13 1300.568237 -464.542236 -15.245669 0.000103 -0.000053 82.120995 1381.126221
[BN_LookIK]
11 193.241119 1380.371704 -0.002861 0.000000 89.965736 -31.038179 1393.832153
12 193.241119 1380.371704 -0.002861 0.000000 89.965736 -31.038179 1393.832153
13 193.241119 1380.371704 -0.002861 0.000000 89.965736 -31.038179 1393.832153
[bottomMouth]
11 -435.092926 615.759399 -0.000954 -0.000022 0.000016 73.527184 753.966492
12 -435.092926 615.759399 -0.000954 -0.000022 0.000016 73.527184 753.966492
13 -435.092926 615.759399 -0.000954 -0.000022 0.000016 73.527184 753.966492
[L_Mouth01]
11 554.440979 7.658243 838.222046 150.204178 23.759130 109.605339 1005.027161
12 554.440979 7.658243 838.222046 150.204178 23.759130 109.605339 1005.027161
13 554.440979 7.658243 838.222046 150.204178 23.759130 109.605339 1005.027161
[L_mouthFront]
11 551.629089 934.514771 339.150421 0.000081 2.804060 79.119301 1136.941284
12 551.629089 934.514771 339.150421 0.000081 2.804060 79.119301 1136.941284
13 551.629089 934.514771 339.150421 0.000081 2.804060 79.119301 1136.941284
[mouthGun]
11 55.332661 1627.420898 0.000000 0.000023 0.000009 -11.038128 1628.361328
12 55.332661 1627.420898 0.000000 0.000023 0.000009 -11.038128 1628.361328
13 55.332661 1627.420898 0.000000 0.000023 0.000009 -11.038128 1628.361328
[R_Mouth01]
11 554.442383 7.659197 -838.223938 29.795891 -23.759109 109.605331 1005.029541
12 554.442383 7.659197 -838.223938 29.795891 -23.759109 109.605331 1005.029541
13 554.442383 7.659197 -838.223938 29.795891 -23.759109 109.605331 1005.029541
[R_mouthFront]
11 551.629089 934.514282 -339.151367 0.000029 -2.803930 79.119133 1136.941162
12 551.629089 934.514282 -339.151367 0.000029 -2.803930 79.119133 1136.941162
13 551.629089 934.514282 -339.151367 0.000029 -2.803930 79.119133 1136.941162
[TopMouth]
11 461.269867 -56.106091 -0.008583 -0.000059 -0.000268 92.025169 464.669525
12 461.269867 -56.106091 -0.008583 -0.000059 -0.000268 92.025169 464.669525
13 461.269867 -56.106091 -0.008583 -0.000059 -0.000268 92.025169 464.669525
[weapon_bone]
11 -987.239868 1448.372803 0.001431 0.000000 89.965736 -31.038221 1752.833740
12 -987.239868 1448.372803 0.001431 0.000000 89.965736 -31.038221 1752.833740
13 -987.239868 1448.372803 0.001431 0.000000 89.965736 -31.038221 1752.833740
